<?xml version="1.0" standalone="no"?>
<!DOCTYPE svg PUBLIC "-//W3C//DTD SVG 20010904//EN"
 "http://www.w3.org/TR/2001/REC-SVG-20010904/DTD/svg10.dtd">
<svg version="1.0" xmlns="http://www.w3.org/2000/svg"
 width="97.000000pt" height="97.000000pt" viewBox="0 0 97.000000 97.000000"
 preserveAspectRatio="xMidYMid meet">
<metadata>
Created by potrace 1.11, written by Peter Selinger 2001-2013
</metadata>
<g transform="translate(0.000000,97.000000) scale(0.100000,-0.100000)"
fill="#000000" stroke="none">
<path d="M210 880 c-117 -22 -215 -52 -198 -60 7 -4 47 -13 88 -20 79 -13 189
-39 203 -47 10 -6 -19 -35 -52 -52 -23 -13 -23 -27 -5 -75 4 -9 -5 -25 -21
-40 -25 -24 -26 -27 -15 -63 7 -21 16 -42 20 -48 4 -5 15 -31 25 -57 10 -27
21 -48 25 -48 4 0 19 9 33 20 14 11 28 20 31 20 3 0 17 -18 31 -41 l26 -40 35
20 34 20 0 -57 c0 -38 -10 -89 -30 -147 -16 -49 -30 -90 -30 -92 0 -7 177 135
230 184 77 70 130 194 130 301 0 41 4 48 69 109 119 110 161 196 109 224 -29
16 -152 6 -268 -21 -81 -20 -91 -20 -105 -6 -40 40 -202 47 -365 16z"/>
</g>
</svg>
